<svg width="430" height="932" viewBox="0 0 430 932" fill="none" xmlns="http://www.w3.org/2000/svg">
  <rect width="430" height="932" rx="40" fill="#F4F0E8"/>
  <circle cx="350" cy="108" r="68" fill="#D6E7E0"/>
  <circle cx="88" cy="818" r="88" fill="#F2D7C8"/>
  <rect x="23" y="24" width="384" height="884" rx="34" fill="#FBF8F3" stroke="#E5DDD2"/>
  <text x="42" y="78" fill="#243038" font-size="28" font-family="Arial" font-weight="700">AI Baby</text>
  <text x="42" y="109" fill="#708089" font-size="15" font-family="Arial">A softer home for everyday baby care.</text>

  <text x="42" y="166" fill="#243038" font-size="36" font-family="Arial" font-weight="700">Good evening,</text>
  <text x="42" y="205" fill="#243038" font-size="36" font-family="Arial" font-weight="700">Test Baby</text>

  <rect x="40" y="232" width="350" height="184" rx="28" fill="#FFFFFF" stroke="#E5DDD2"/>
  <text x="64" y="270" fill="#708089" font-size="12" font-family="Arial" font-weight="700">ACTIVE PROFILE</text>
  <text x="64" y="312" fill="#243038" font-size="30" font-family="Arial" font-weight="700">5 months old</text>
  <text x="64" y="344" fill="#526169" font-size="17" font-family="Arial">Mixed feeding   America/Los_Angeles</text>
  <line x1="64" y1="364" x2="364" y2="364" stroke="#EEE6DD"/>
  <text x="64" y="398" fill="#8A6E5A" font-size="16" font-family="Arial" font-weight="700">Primary caregiver: Zhen</text>

  <rect x="40" y="438" width="350" height="60" rx="20" fill="#566B7A"/>
  <text x="152" y="476" fill="#FFFFFF" font-size="21" font-family="Arial" font-weight="700">Log today's meal</text>

  <text x="42" y="554" fill="#243038" font-size="25" font-family="Arial" font-weight="700">Continue gently</text>
  <text x="42" y="581" fill="#708089" font-size="15" font-family="Arial">A calmer structure for timeline review and summaries.</text>

  <rect x="40" y="608" width="350" height="104" rx="24" fill="#FAF7F2" stroke="#E5DDD2"/>
  <text x="64" y="651" fill="#243038" font-size="24" font-family="Arial" font-weight="700">Today's timeline</text>
  <text x="64" y="681" fill="#708089" font-size="15" font-family="Arial">Meals, notes, AI drafts, and confirmations in one quiet feed.</text>

  <rect x="40" y="732" width="350" height="104" rx="24" fill="#FAF7F2" stroke="#E5DDD2"/>
  <text x="64" y="775" fill="#243038" font-size="24" font-family="Arial" font-weight="700">Summary history</text>
  <text x="64" y="805" fill="#708089" font-size="15" font-family="Arial">Daily and weekly nutrition patterns with softer visual tone.</text>

  <rect x="145" y="854" width="140" height="8" rx="4" fill="#D9D0C5"/>
</svg>
