<svg width="430" height="932" viewBox="0 0 430 932" fill="none" xmlns="http://www.w3.org/2000/svg">
  <rect width="430" height="932" rx="40" fill="#F4F0E8"/>
  <circle cx="90" cy="120" r="52" fill="#D6E7E0"/>
  <circle cx="351" cy="826" r="70" fill="#F2D7C8"/>
  <rect x="23" y="24" width="384" height="884" rx="34" fill="#FBF8F3" stroke="#E5DDD2"/>
  <text x="42" y="74" fill="#243038" font-size="20" font-family="Arial">←</text>
  <text x="68" y="78" fill="#243038" font-size="28" font-family="Arial" font-weight="700">Log a meal</text>
  <text x="42" y="110" fill="#708089" font-size="15" font-family="Arial">A softer capture flow for text notes, photos, and AI help.</text>

  <rect x="40" y="146" width="350" height="182" rx="28" fill="#FFFFFF" stroke="#E5DDD2"/>
  <text x="62" y="182" fill="#708089" font-size="12" font-family="Arial" font-weight="700">MEAL NOTE</text>
  <text x="62" y="226" fill="#243038" font-size="24" font-family="Arial" font-weight="700">What did Test Baby eat?</text>
  <text x="62" y="264" fill="#60707D" font-size="16" font-family="Arial">Breakfast: oatmeal, banana, yogurt</text>
  <line x1="62" y1="286" x2="368" y2="286" stroke="#EEE6DD"/>
  <text x="62" y="308" fill="#A18F80" font-size="14" font-family="Arial">Natural language should feel welcome here.</text>

  <rect x="40" y="348" width="168" height="58" rx="20" fill="#EDE6DD"/>
  <text x="88" y="384" fill="#455967" font-size="18" font-family="Arial" font-weight="700">Add photo</text>
  <rect x="222" y="348" width="168" height="58" rx="20" fill="#E9D7E1"/>
  <text x="265" y="384" fill="#6D5161" font-size="18" font-family="Arial" font-weight="700">Breakfast</text>

  <rect x="40" y="428" width="350" height="60" rx="20" fill="#566B7A"/>
  <text x="154" y="466" fill="#FFFFFF" font-size="21" font-family="Arial" font-weight="700">Send to AI Baby</text>

  <text x="42" y="544" fill="#243038" font-size="24" font-family="Arial" font-weight="700">AI draft result</text>
  <text x="42" y="571" fill="#708089" font-size="15" font-family="Arial">The response should reassure, not feel robotic or transactional.</text>

  <rect x="40" y="596" width="350" height="164" rx="26" fill="#FAF7F2" stroke="#E5DDD2"/>
  <text x="62" y="635" fill="#8A6E5A" font-size="13" font-family="Arial" font-weight="700">DRAFT RECORD</text>
  <text x="62" y="675" fill="#243038" font-size="24" font-family="Arial" font-weight="700">Breakfast</text>
  <text x="62" y="706" fill="#526169" font-size="16" font-family="Arial">Oatmeal, banana, yogurt</text>
  <rect x="62" y="723" width="140" height="22" rx="11" fill="#D6E7E0"/>
  <text x="87" y="738" fill="#365B52" font-size="12" font-family="Arial" font-weight="700">Looks ready to save</text>

  <rect x="40" y="780" width="168" height="60" rx="20" fill="#FFFFFF" stroke="#E5DDD2"/>
  <text x="92" y="818" fill="#455967" font-size="18" font-family="Arial" font-weight="700">Edit</text>
  <rect x="222" y="780" width="168" height="60" rx="20" fill="#566B7A"/>
  <text x="270" y="818" fill="#FFFFFF" font-size="18" font-family="Arial" font-weight="700">Confirm</text>

  <rect x="145" y="858" width="140" height="8" rx="4" fill="#D9D0C5"/>
</svg>
